# xmcd
#
# Track frame offsets: 
#        150
#        16647
#        33695
#
# Disc length: 667 seconds
#
# Revision: 2
# Processed by: cddbd v1.5.2PL0 Copyright (c) Steve Scherf et al.
# Submitted via: ExactAudioCopy v1.0b3
#
DISCID=18029903
DTITLE=A.K.-S.W.I.F.T. - Here We Come (feat. Frankfurt Galaxy)
DYEAR=2003
DGENRE=Rap
TTITLE0=Here We Come (Stadium Mix)
TTITLE1=Here We Come (Funk Galactic Mix)
TTITLE2=Here We Come (Carry Ok Mix)
EXTD=YEAR: 2005
EXTT0=
EXTT1=
EXTT2=
PLAYORDER=
